<svg xmlns="http://www.w3.org/2000/svg" version="1.1" xmlns:xlink="http://www.w3.org/1999/xlink" xmlns:svgjs="http://svgjs.dev/svgjs" width="1000" height="450" viewBox="0 0 1000 550">
	<rect width="1000" height="550" fill="#ffffff">
	</rect>
	<g transform="matrix(0.834,0,0,0.834,82.49502786922886,101.05683780174769)">
		<svg viewBox="0 0 396 260" data-background-color="#ffffff" preserveAspectRatio="xMidYMid meet" height="656" width="1000" xmlns="http://www.w3.org/2000/svg" xmlns:xlink="http://www.w3.org/1999/xlink">
			<g id="tight-bounds" transform="matrix(1,0,0,1,0.23977093979061692,0.185892017676764)">
				<svg viewBox="0 0 395.52 259.62778008777786" height="259.62778008777786" width="395.52">
					<g>
						<svg viewBox="0 0 395.52 259.62778008777786" height="259.62778008777786" width="395.52">
							<g transform="matrix(1,0,0,1,39.16072308782509,0)">
								<svg viewBox="0 0 317.1985538243498 185.47465040548735" height="220.47465040548735" width="317.1985538243498">
									<g>
										<svg xmlns="http://www.w3.org/2000/svg" xmlns:xlink="http://www.w3.org/1999/xlink" version="1.1" x="0" y="0" viewBox="4.8705596923828125 21.04912567138672 90.15634155273438 52.71687316894531" enable-background="new 0 0 100 100" xml:space="preserve" height="185.47465040548735" width="317.1985538243498" class="icon-icon-0" data-fill-palette-color="accent" id="icon-0">
											<path fill="#0ea5e9" d="M94.925 29.111c-0.368-0.716-1.452-0.811-3.523-0.303-14.604 3.584-19.534-5.518-19.752-5.931-0.288-0.487-1.327-2.051-2.34-1.801-0.893 0.218-1.068 1.538-1.122 2.511-0.162 2.888 2.603 7.8 2.714 7.996 1.699 3.185-0.378 4.856-0.465 4.924l-0.078 0.075c-6.434 7.581-13.154 4.818-13.463 4.687-13.209-4.807-47.514-5.211-48.973-5.226-1.068 0-1.881 0.312-2.414 0.927-0.789 0.91-0.625 2.129-0.623 2.13C4.896 39.372 6.24 65.941 30.16 65.941c0.215 0 0.436-0.006 0.655-0.01 1.445 2.648 3.119 5.054 4.978 6.593 0.154 0.146 1.348 1.242 2.604 1.242 0.237 0 0.477-0.039 0.711-0.13 0.999-0.39 1.548-1.534 1.679-3.504 0.003-0.061 0.083-1.516-0.373-3.606-0.122-0.56-0.282-1.144-0.467-1.737C55.692 62.087 66.31 50.464 71.26 43.714l0.813-1.117c3.183-4.381 3.374-4.643 8.854-5.073 6.238-0.489 11.289-4.289 11.522-4.468C93.391 32.254 95.515 30.261 94.925 29.111zM91.822 32.279c-0.05 0.038-5.026 3.783-10.974 4.249-5.939 0.466-6.354 1.037-9.584 5.482l-0.812 1.113c-4.876 6.649-15.342 18.118-30.824 20.71-1.346-3.823-3.523-7.715-3.637-7.916-0.163-0.29-0.529-0.394-0.817-0.229-0.289 0.162-0.391 0.528-0.229 0.816 0.034 0.06 3.371 6.021 4.296 10.277 0.417 1.917 0.348 3.268 0.348 3.275-0.093 1.392-0.418 2.265-0.917 2.46-0.655 0.257-1.73-0.557-2.084-0.89-6.123-5.072-10.376-20.676-10.418-20.833-0.086-0.321-0.416-0.509-0.735-0.424-0.32 0.086-0.51 0.416-0.424 0.735 0.119 0.441 2.066 7.579 5.27 13.817C13.284 64.998 8.108 51.476 6.55 43.92c1.561 0.687 6.093 2.538 12.649 3.983l0.161-0.732c-7.473-1.648-12.275-3.82-12.986-4.152-0.4-2.206-0.483-3.75-0.494-4.01-0.001-0.008-0.102-0.825 0.383-1.384 0.335-0.386 0.893-0.582 1.654-0.582 0.354 0.003 35.587 0.417 48.608 5.155 0.076 0.032 7.649 3.187 14.568-4.938 0.377-0.325 2.639-2.494 0.684-6.159-0.027-0.048-2.737-4.863-2.592-7.458 0.077-1.386 0.361-1.594 0.356-1.595 0.001 0 0.003 0 0.004 0 0.204 0 0.8 0.592 1.229 1.313 0.053 0.103 5.466 10.191 20.864 6.418 2.01-0.492 2.382-0.219 2.392-0.219C94.117 29.913 93.033 31.243 91.822 32.279zM19.946 44.7c0 0.334-0.27 0.604-0.604 0.604-0.333 0-0.604-0.27-0.604-0.604 0-0.333 0.27-0.604 0.604-0.604C19.676 44.097 19.946 44.367 19.946 44.7z" data-fill-palette-color="accent">
											</path>
										</svg>
									</g>
								</svg>
							</g>
							<g>
							</g>
						</svg>
					</g>
					<defs>
					</defs>
				</svg>
			</g>
		</svg>
	</g>
</svg>
